<svg xmlns="http://www.w3.org/2000/svg" style="display:none">
<symbol id="more" viewBox="0 0 24 24">
<path fill="currentColor" d="M2.9 11.5a1.6 1.6 0 1 1 3.2 0 1.6 1.6 0 0 1-3.2 0m1.6-.6a.6.6 0 1 0 0 1.2.6.6 0 0 0 0-1.2m5.4.6a1.6 1.6 0 1 1 3.2 0 1.6 1.6 0 0 1-3.2 0m1.6-.6a.6.6 0 1 0 0 1.2.6.6 0 0 0 0-1.2m5.4.6a1.6 1.6 0 1 1 3.2 0 1.6 1.6 0 0 1-3.2 0m1.6-.6a.6.6 0 1 0 0 1.2.6.6 0 0 0 0-1.2"/>
</symbol>
<symbol id="off-canvas" viewBox="0 0 24 24">
<path fill="currentColor" d="M21 8H3V7h18zM3 11h18v1H3zm0 4h18v1H3z"/>
</symbol>
<symbol id="power" viewBox="0 0 24 24">
<path fill="currentColor" d="M1.01 13H3v1H1.01a10.46 10.46 0 0 0 2.7 6.58l1.44-1.43.7.7-2.15 2.16-.35-.36A11.47 11.47 0 0 1 0 13.5C0 7.12 5.12 2 11.5 2S23 7.12 23 13.5a11.5 11.5 0 0 1-3.35 8.15l-.35.36-2.15-2.16.7-.7 1.44 1.43A10.55 10.55 0 0 0 22 14h-2v-1h1.99a10.46 10.46 0 0 0-2.71-6.57l-1.43 1.42-.7-.7 1.42-1.43A10.46 10.46 0 0 0 12 3.02V5h-1V3.01a10.46 10.46 0 0 0-6.57 2.71l1.42 1.43-.7.7-1.43-1.42A10.46 10.46 0 0 0 1.02 13Zm16.84 2.98-6.5-2 .3-.96 6.5 2z"/>
</symbol>
<symbol id="remove" viewBox="0 0 24 24">
<path fill="currentColor" d="M18 11.5v1H6v-1z"/>
</symbol>
<symbol id="resize-decrease" viewBox="0 0 24 24">
<path fill="currentColor" d="m14 9.28 7.15-7.13.7.7L14.71 10H20v1h-7V4h1zM4 13h7v7h-1v-5.3l-7.15 7.15-.7-.7L9.29 14H4.01v-1Z"/>
</symbol>
<symbol id="resize-increase" viewBox="0 0 24 24">
<path fill="currentColor" d="M20.3 3H15V2h7v7h-1V3.72l-7.15 7.13-.7-.7L20.29 3ZM3 20.3l7.15-7.15.7.7L3.71 21h5.28v1H2v-7h1z"/>
</symbol>
<symbol id="select" viewBox="0 0 24 24">
<path fill="currentColor" d="m18 6.61-8.36 10.4L5 12.5l.7-.72 3.85 3.73L17.23 6l.78.62Z"/>
</symbol>
<symbol id="settings" viewBox="0 0 24 24">
<path fill="currentColor" d="M9.4 2h4.2v2.84c.37.13.75.27 1.11.44L16.7 3.3l3 3.01-1.98 1.99c.17.36.31.74.44 1.11H21v4.3h-2.84c-.13.37-.27.75-.44 1.11l2 2-3.03 2.89-1.98-1.98c-.36.17-.74.31-1.11.44V21H9.4v-2.84a9 9 0 0 1-1.11-.44L6.3 19.7l-3-3.01 1.98-1.99a9 9 0 0 1-.44-1.11H2V9.4h2.84c.13-.37.27-.75.44-1.11L3.3 6.3l3.01-3L8.3 5.28c.36-.17.74-.31 1.11-.44V2Zm1 1v2.56l-.34.11c-.61.2-1.16.4-1.6.66l-.34.2L6.3 4.71 4.7 6.3l1.83 1.82-.2.34c-.27.44-.45.99-.66 1.6l-.11.34H3v2.2h2.56l.11.34c.2.61.4 1.16.66 1.6l.2.34-1.82 1.82 1.59 1.6 1.82-1.83.34.2c.44.27.99.45 1.6.66l.34.11V20h2.2v-2.56l.34-.11a8.3 8.3 0 0 0 1.6-.66l.34-.2 1.83 1.83 1.57-1.5-1.81-1.82.2-.34c.27-.44.45-.99.66-1.6l.11-.34H20v-2.3h-2.56l-.11-.34a8.2 8.2 0 0 0-.66-1.6l-.2-.34 1.82-1.82-1.59-1.6-1.82 1.83-.34-.2a8.2 8.2 0 0 0-1.6-.66l-.34-.11V3zm-2.9 8.5c0-2.18 1.82-4 4-4s4 1.82 4 4-1.82 4-4 4-4-1.82-4-4m4-3c-1.62 0-3 1.38-3 3s1.38 3 3 3 3-1.38 3-3-1.38-3-3-3"/>
</symbol>
<symbol id="share-android" viewBox="0 0 24 24">
<path fill="currentColor" d="M15 6a3 3 0 1 1 .52 1.7L7.9 11.2a3 3 0 0 1 0 1.58l7.62 3.52a3 3 0 1 1-.42.9l-7.62-3.5a3 3 0 1 1 0-3.38L15.1 6.8A3 3 0 0 1 15 6m3-2a2 2 0 1 0 0 4 2 2 0 0 0 0-4M5 10a2 2 0 1 0 0 4 2 2 0 0 0 0-4m13 6a2 2 0 1 0 0 4 2 2 0 0 0 0-4"/>
</symbol>
<symbol id="signal" viewBox="0 0 24 24">
<path fill="currentColor" d="M22 20A18 18 0 0 0 4 2V1a19 19 0 0 1 19 19zm-5 0A13 13 0 0 0 4 7V6a14 14 0 0 1 14 14zm-5 0a8 8 0 0 0-8-8v-1a9 9 0 0 1 9 9zm-7.5-2a1.5 1.5 0 1 0 0 3 1.5 1.5 0 0 0 0-3M2 19.5a2.5 2.5 0 1 1 5 0 2.5 2.5 0 0 1-5 0"/>
</symbol>
<symbol id="share" viewBox="0 0 24 24">
<path fill="currentColor" d="m11.5 1.8 3.85 3.85-.7.7L12 3.71V15h-1V3.7L8.35 6.36l-.7-.7zM5 8h4v1H6v11h11V9h-3.02V8H18v13H5z"/>
</symbol>
<symbol id="user" viewBox="0 0 24 24">
<path fill="currentColor" d="M10.5 4C9.68 4 9 4.68 9 5.5v3c0 .82.68 1.5 1.5 1.5h3c.82 0 1.5-.68 1.5-1.5v-3c0-.82-.68-1.5-1.5-1.5zM8 5.5A2.5 2.5 0 0 1 10.5 3h3A2.5 2.5 0 0 1 16 5.5v3a2.5 2.5 0 0 1-2.5 2.5h-3A2.5 2.5 0 0 1 8 8.5zm-1.87 8.63c-.07.07-.13.18-.13.37V21h12v-6.5c0-.19-.06-.3-.13-.37S17.7 14 17.5 14h-11c-.19 0-.3.06-.37.13m-.7-.7A1.5 1.5 0 0 1 6.5 13h11c.41 0 .8.14 1.08.42s.42.67.42 1.08V22H5v-7.5c0-.41.14-.8.42-1.08Z"/>
</symbol>
<symbol id="tour" viewBox="0 0 24 24">
<path fill="currentColor" d="M3.4 3C2.6 3 2 3.64 2 4.5c0 .16.08.46.27.89a15.5 15.5 0 0 0 1.23 2.2 18.4 18.4 0 0 0 1.23-2.2c.19-.43.27-.73.27-.89C5 3.68 4.32 3 3.5 3zm.1 5.5-.41.28-.03-.03a18 18 0 0 1-.3-.45l-.7-1.14a14 14 0 0 1-.7-1.37A3.5 3.5 0 0 1 1 4.5C1 3.16 2 2 3.4 2h.1A2.5 2.5 0 0 1 6 4.5c0 .39-.17.86-.35 1.29a27 27 0 0 1-1.71 2.96l-.02.02v.01zm0 0 .41.28-.41.6-.41-.6zM12.4 3c-.8 0-1.4.64-1.4 1.5 0 .16.08.46.27.89a15.5 15.5 0 0 0 1.23 2.2 18.4 18.4 0 0 0 1.23-2.2c.19-.43.27-.73.27-.89 0-.82-.68-1.5-1.5-1.5zm.1 5.5-.41.28-.03-.03a12 12 0 0 1-.3-.45l-.7-1.14c-.25-.44-.5-.92-.7-1.37A3.5 3.5 0 0 1 10 4.5C10 3.16 11 2 12.4 2h.1A2.5 2.5 0 0 1 15 4.5c0 .39-.17.86-.35 1.29a27 27 0 0 1-1.71 2.96l-.02.02v.01zm0 0 .41.28-.41.6-.41-.6zm5.79-.5h.21a4.5 4.5 0 0 1 4.5 4.5c0 .66-.3 1.52-.67 2.38-.38.88-.9 1.83-1.4 2.7a54 54 0 0 1-1.97 3.14l-.04.05v.01l-.42-.28-.41.28-.01-.01-.04-.05a40 40 0 0 1-.58-.89 33 33 0 0 1-2.8-4.95A6.6 6.6 0 0 1 14 12.5 4.34 4.34 0 0 1 18.28 8Zm.21 12.5-.41.28.41.6.41-.6zm0-.9a53 53 0 0 0 1.57-2.53c.5-.85.98-1.76 1.35-2.6s.58-1.53.58-1.97c0-1.92-1.58-3.5-3.5-3.5h-.19c-1.94.1-3.4 1.58-3.31 3.48v.02c0 .44.2 1.13.58 1.98.37.83.86 1.74 1.35 2.6a53 53 0 0 0 1.57 2.52M9.94 11H3v-1h10.06l-7.61 5.44 13.29 7.12-.48.88-14.7-7.88L9.93 11Z"/>
</symbol>
<symbol id="add" viewBox="0 0 24 24">
<path fill="currentColor" d="M12.5 5.5v6h6v1h-6v6h-1v-6h-6v-1h6v-6z"/>
</symbol>
<symbol id="arrow-down" viewBox="0 0 24 24">
<path fill="currentColor" d="m6.65 10.35.7-.7 5.15 5.14 5.15-5.14.7.7-5.85 5.86z"/>
</symbol>
<symbol id="announcements" viewBox="0 0 24 24">
<path fill="currentColor" d="M21.38 2h.12c.5 0 .9.27 1.2.65.31.37.55.9.73 1.52.37 1.25.57 3.06.57 5.33s-.2 4.08-.57 5.33a4.5 4.5 0 0 1-.72 1.52c-.3.38-.71.65-1.21.65h-.12l-.1-.05h-.02l-.05-.03a28 28 0 0 0-.93-.43 40 40 0 0 0-2.5-1.02c-2-.75-4.43-1.47-6.28-1.47H9.2l3 9H7.13l-3-9H0V5h11.5c1.85 0 4.28-.72 6.29-1.47a45 45 0 0 0 3.42-1.45l.05-.02h.02zm.2 1.01a31 31 0 0 1-.9.42c-.63.28-1.52.66-2.54 1.04A23.3 23.3 0 0 1 12 5.99V13c1.95.11 4.28.83 6.14 1.52A46 46 0 0 1 21.59 16c.1-.03.2-.1.34-.26.19-.24.37-.62.54-1.18.33-1.13.53-2.82.53-5.05s-.2-3.92-.53-5.05a3.5 3.5 0 0 0-.54-1.18.8.8 0 0 0-.34-.26ZM11 13V6H1v7h3.86l3 9h2.95l-3-9z"/>
</symbol>
<symbol id="arrow-left-u-turn" viewBox="0 0 24 24">
<path fill="currentColor" d="M7 6.5C7 3.42 9.42 1 12.5 1S18 3.42 18 6.5V24h-1V6.5C17 3.98 15.02 2 12.5 2A4.45 4.45 0 0 0 8 6.5v4.8l3.65-3.65.7.7-4.85 4.86-4.85-4.86.7-.7L7 11.29z"/>
</symbol>
<symbol id="arrow-right-light" viewBox="0 0 24 24">
<path fill="currentColor" d="M15.28 2H10V1h7v7h-1V2.7L9.15 9.45A7.6 7.6 0 0 0 7 14.8V24H6v-9.2a8.6 8.6 0 0 1 2.45-6.05z"/>
</symbol>
<symbol id="back" viewBox="0 0 24 24">
<path fill="currentColor" d="m10.21 12 5.12-5.08-.7-.71L8.79 12l5.84 5.8.7-.72L10.22 12Z"/>
</symbol>
<symbol id="arrow-up" viewBox="0 0 24 24">
<path fill="currentColor" fill-rule="evenodd" d="m12.5 9.3 5.85 5.85-.7.7-5.15-5.14-5.15 5.14-.7-.7 5.85-5.86Z" clip-rule="evenodd"/>
</symbol>
<symbol id="bookmark" viewBox="0 0 24 24">
<path fill="currentColor" d="M5 0h14v23.7l-7-7-7 7zm1 1v20.3l6-6 6 6V1z"/>
</symbol>
<symbol id="benefits" viewBox="0 0 24 24">
<path fill="currentColor" d="m11.99 2 .01-.01.01.01h5.21l5.94 6.48L12.49 22h-.98L.84 8.48 6.78 2zm1.54 17.07L21.47 9h-4.03l-3.9 10.07ZM17.23 8h4.13l-4.58-5h-3.9zM15.9 8 12 3.51 8.1 8zM7.73 9 12 20.24 16.37 9zm-.96-1 4.35-5h-3.9L2.64 8zM2.53 9l7.98 10.12L6.66 9z"/>
</symbol>
<symbol id="cancel" viewBox="0 0 24 24">
<path fill="currentColor" d="m12.17 12.88-4.81 4.81-.71-.7 4.81-4.82-4.81-4.81.7-.71 4.82 4.81 4.81-4.81.71.7-4.81 4.82 4.81 4.81-.7.71z"/>
</symbol>
<symbol id="calendar-events" viewBox="0 0 24 24">
<path fill="currentColor" d="m4 5.9 2.1-.5h.6v5.8h1.8v.8H4v-.8h1.8V6.3L4 6.7zm5.7 5.8v-.8c.7.2 1.5.3 2.3.4 1.4 0 2-.5 2-1.2 0-1.2-2.7-1.4-4.1-1.4l.2-3.3h4.5v.8h-3.7L10.8 8c1.9.1 4.1.5 4.1 2.1 0 1.1-.9 2-3 2-.8 0-1.5-.2-2.2-.4"/><path fill="currentColor" d="M19 1H0V0h19zM0 18.5V3h1v15.5c0 .26.2.5.5.5H13v-5h5V3h1v11.7L13.7 20H6v2.5c0 .19.06.3.13.37s.18.13.37.13h15c.19 0 .3-.06.37-.13s.13-.18.13-.37V6h1v16.5c0 .41-.14.8-.42 1.08a1.5 1.5 0 0 1-1.08.42h-15c-.41 0-.8-.14-1.08-.42A1.5 1.5 0 0 1 5 22.5V20H1.5C.6 20 0 19.24 0 18.5M17.3 15H14v3.3z"/>
</symbol>
<symbol id="caution" viewBox="0 0 24 24">
<path fill="currentColor" d="M11.5 1.47 22.35 21H.65zM2.35 20h18.3L11.5 3.53zM11 14V8h1v6zm1 2v2h-1v-2z"/>
</symbol>
<symbol id="compass" viewBox="0 0 24 24">
<path fill="currentColor" d="m15.96 11.84.04-11-7.61 7.94a4.75 4.75 0 0 0-1.33 3.27l-.03 11 7.6-7.94a4.75 4.75 0 0 0 1.33-3.27m-7.78-.7 6.29 2.54c-.16.26-.34.51-.56.74l-5.88 6.13.03-8.5c0-.3.04-.61.12-.91"/>
</symbol>
<symbol id="copy" viewBox="0 0 24 24">
<path fill="currentColor" d="M5 0h12.2L22 4.8V21h-2v-1h1V5.2L16.8 1H6v1H5zM2 3h12.2L19 7.8V24H2zm1 1v19h15V9h-5V4zm11 .2V8h3.8z"/>
</symbol>
<symbol id="download" viewBox="0 0 24 24">
<path fill="currentColor" d="M12 4h1v10.3l3.65-3.65.7.7-4.85 4.86-4.85-4.86.7-.7L12 14.29zm7 15v1H6v-1z"/>
</symbol>
<symbol id="external-link" viewBox="0 0 24 24">
<path fill="currentColor" d="M18.3 5H12V4h8v8h-1V5.7l-7.15 7.15-.7-.7L18.29 5ZM4 7h6v1H5v11h11v-5h1v6H4z"/>
</symbol>
<symbol id="erase" viewBox="0 0 24 24">
<path fill="currentColor" d="M11 4h-1V3h3v1h-1v1h6.36l2.1 3H2.54l2.1-3H11zM5.16 6l-.7 1h14.08l-.7-1zM5 19.5V9h1v10.5c0 .26.2.5.5.5h10c.09 0 .22-.05.33-.17a.5.5 0 0 0 .17-.33V9h1v10.5c0 .41-.2.78-.46 1.04a1.5 1.5 0 0 1-1.04.46h-10c-.9 0-1.5-.76-1.5-1.5"/>
</symbol>
<symbol id="forward" viewBox="0 0 24 24">
<path fill="currentColor" d="M14.27 12 9.15 6.92l.7-.71L15.7 12l-5.84 5.8-.7-.72z"/>
</symbol>
<symbol id="follow" viewBox="0 0 24 24">
<path fill="currentColor" d="M13.6 3.3 20 9.7l-1.22 1.23-2.5-.3-1.13 1.12-.9 3.7-1.95 1.96-2.85-2.85-5.1 5.1-.7-.71 5.1-5.1L5.88 11l1.96-1.95 3.7-.9 1.12-1.13-.3-2.5 1.23-1.23Zm-.17 1.58.3 2.5-1.68 1.67-3.7.9L7.31 11l4.99 5 1.05-1.05.9-3.7 1.67-1.68 2.5.3.17-.17-4.99-5z"/>
</symbol>
<symbol id="filter" viewBox="0 0 24 24">
<path fill="currentColor" d="M2.4 4h19.2l-7.13 8.24-.02.01c-.3.31-.45.69-.45 1.05v5.47l-4 2.66V13.3c0-.36-.14-.74-.45-1.05h-.02L2.41 4Zm2.2 1 5.67 6.56c.48.49.73 1.1.73 1.74v6.27l2-1.34V13.3c0-.63.25-1.25.73-1.74L19.41 5H4.59Z"/>
</symbol>
<symbol id="gps" viewBox="0 0 24 24">
<path fill="currentColor" d="M12.5 3.51V6.5h-1V3.51a8.46 8.46 0 0 0-7.99 7.99H6.5v1H3.51a8.46 8.46 0 0 0 7.99 7.99V17.5h1v2.99a8.46 8.46 0 0 0 7.99-7.99H17.5v-1h2.99a8.46 8.46 0 0 0-7.99-7.99m0-1a9.46 9.46 0 0 1 8.99 8.99h2.01v1h-2.01a9.46 9.46 0 0 1-8.99 8.99v2.01h-1v-2.01a9.46 9.46 0 0 1-8.99-8.99H.5v-1h2.01a9.46 9.46 0 0 1 8.99-8.99V.5h1z"/>
</symbol>
<symbol id="geofence" viewBox="0 0 24 24">
<path fill="currentColor" d="M11.5 1.8h.01c3.57.1 6.5 3.23 6.29 6.72 0 .9-.4 2.1-.95 3.33a40 40 0 0 1-2.02 3.85 76 76 0 0 1-2.85 4.49l-.05.07-.02.02-.41-.28-.41.29v-.01l-.02-.02-.05-.07a47 47 0 0 1-.84-1.26 76 76 0 0 1-2.01-3.23 40 40 0 0 1-2.02-3.85A9.2 9.2 0 0 1 5.2 8.5a6.59 6.59 0 0 1 6.28-6.71h.02Zm0 18.2-.41.29.41.58.41-.58zm0-.89a76 76 0 0 0 2.47-3.91 39 39 0 0 0 1.97-3.76c.54-1.22.86-2.25.86-2.94v-.03a5.52 5.52 0 0 0-5.3-5.67 5.59 5.59 0 0 0-5.3 5.68v.02c0 .69.32 1.72.86 2.94.54 1.2 1.25 2.53 1.97 3.76a75 75 0 0 0 2.47 3.91m0-12.61c-1.12 0-2 .88-2 2s.88 2 2 2 2-.88 2-2-.88-2-2-2m-3 2c0-1.68 1.32-3 3-3s3 1.32 3 3-1.32 3-3 3-3-1.32-3-3M2.07 20.62c-.24.22-.27.35-.27.38 0 .07.06.27.54.55.45.27 1.13.52 2.02.74 1.76.44 4.22.71 6.94.71s5.2-.27 7-.71c.9-.22 1.59-.48 2.04-.74.5-.29.56-.49.56-.55 0-.04-.03-.17-.27-.38a4.3 4.3 0 0 0-1.11-.63c-1-.43-2.46-.8-4.18-1l.12-.99c1.78.2 3.33.6 4.45 1.06.55.24 1.03.5 1.37.8.33.3.62.68.62 1.14 0 .64-.51 1.1-1.05 1.41-.58.34-1.38.62-2.32.85-1.89.46-4.45.74-7.23.74s-5.32-.28-7.18-.74a8.8 8.8 0 0 1-2.29-.85C1.3 22.1.8 21.63.8 21c0-.47.29-.85.62-1.14.35-.3.83-.56 1.4-.8 1.15-.47 2.74-.85 4.63-1.06l.1 1c-1.82.2-3.32.56-4.35.99-.51.21-.89.43-1.13.63"/>
</symbol>
<symbol id="help-circle" viewBox="0 0 24 24">
<path fill="currentColor" d="M0 11.5a11.5 11.5 0 1 1 23 0 11.5 11.5 0 0 1-23 0M11.5 1a10.5 10.5 0 1 0 0 21 10.5 10.5 0 0 0 0-21m-1.42 6.97a71 71 0 0 0-.36-.94h.01L9.77 7a7 7 0 0 1 .64-.2c.41-.12.98-.24 1.57-.28.58-.04 1.24 0 1.8.27.6.28 1.05.8 1.21 1.6.13.64-.06 1.26-.35 1.8-.3.54-.72 1.04-1.13 1.46a12.5 12.5 0 0 1-1.51 1.3V14h-1v-1.57l.22-.14.03-.03a8 8 0 0 0 .47-.34c.3-.24.7-.57 1.07-.96.39-.39.74-.82.97-1.24.23-.43.32-.8.25-1.12-.1-.5-.34-.75-.65-.9a2.7 2.7 0 0 0-1.31-.18 7 7 0 0 0-1.93.43l-.03.01ZM11 16v-1h1v1z"/>
</symbol>
<symbol id="map-layer" viewBox="0 0 24 24">
<path fill="currentColor" d="m11.7 19.4-8.97-5.66.54-.85 8.96 5.67c.17.1.37.1.54 0l8.96-5.67.54.85-8.97 5.66a1.5 1.5 0 0 1-1.6 0m.53-3.84c.17.1.37.1.54 0l8.3-5.25-8.3-5.23a.5.5 0 0 0-.54 0l-8.3 5.23zm-.53.84-9.64-6.09 9.64-6.08a1.5 1.5 0 0 1 1.6 0l9.64 6.08-9.64 6.1c-.49.3-1.11.3-1.6 0Z"/>
</symbol>
<symbol id="hotline" viewBox="0 0 24 24">
<path fill="currentColor" d="M3 6.2C3 2.75 5.4 0 9 0h6c1.78 0 3.29.65 4.35 1.77A6.33 6.33 0 0 1 21 6.2V8c.94.04 1.69.65 2.19 1.45.52.82.81 1.92.81 3.05s-.3 2.23-.81 3.05c-.5.8-1.25 1.4-2.19 1.45v1h-2.6c-.49 0-.89-.19-1.13-.57A2.1 2.1 0 0 1 17 16.3V8.6c0-.34.05-.74.28-1.06A1.3 1.3 0 0 1 18.4 7H20v-.8c0-1.54-.51-2.83-1.37-3.74A4.87 4.87 0 0 0 15 1H9C6 1 4 3.25 4 6.2V7h1.6c.49 0 .88.18 1.12.54.23.32.28.72.28 1.06v7.7c0 .38-.05.8-.27 1.13-.24.38-.64.57-1.13.57H4.12c.18 1 .59 1.85 1.17 2.5.81.93 2 1.5 3.51 1.5H9v-1h7v3H9v-1h-.2a5.51 5.51 0 0 1-4.26-1.83A6.27 6.27 0 0 1 3.1 18H3v-1a2.95 2.95 0 0 1-2.13-1.44A5.64 5.64 0 0 1 0 12.5c0-1.14.32-2.24.87-3.06A2.95 2.95 0 0 1 3 8zm0 2.82c-.46.07-.92.4-1.3.97-.42.65-.7 1.55-.7 2.51s.28 1.86.7 2.51c.38.57.84.9 1.3.97zM4 17h1.6c.12 0 .18-.02.21-.04a.2.2 0 0 0 .08-.07c.06-.09.11-.27.11-.59V8.6c0-.26-.05-.41-.1-.5-.03-.03-.09-.1-.3-.1H4zm6 5v1h5v-1zM20 8h-1.6c-.21 0-.27.07-.3.1-.05.09-.1.24-.1.5v7.7c0 .32.05.5.1.6.03.03.05.05.09.06.03.02.1.04.21.04H20zm1 8c.48-.04.96-.37 1.34-.98.4-.65.66-1.55.66-2.52s-.26-1.87-.66-2.52c-.38-.61-.86-.94-1.34-.98z"/>
</symbol>
<symbol id="documents" viewBox="0 0 24 24">
<path fill="currentColor" d="M3 2h12.2L20 6.8V23H3zm1 1v19h15V8h-5V3zm11 .2V7h3.8zm2 9.8H6v-1h11zm0 3H6v-1h11zm0 3H6v-1h11z"/>
</symbol>
<symbol id="stock-market" viewBox="0 0 24 24">
<path fill="currentColor" d="M18 5h6v6h-1V6.7l-8.5 8.5-5-5-8.15 8.15-.7-.7L9.5 8.79l5 5L22.3 6H18z"/>
</symbol>
<symbol id="aircraft" viewBox="0 0 24 24">
<path fill="currentColor" d="m7.066 24-.06-.823s-.122-1.203-.122-1.457c-.061-.38-.061-.633 3.106-3.356-.061-.886-.122-3.546-.122-4.876-1.157.317-4.142 1.837-6.7 3.23l-.73.38-.184-.887c0-.063-.182-.95-.243-1.836-.061-.38-.122-1.204 7.735-7.093 0-.886-.06-3.356 0-4.432.061-1.71 1.95-2.66 2.01-2.723L12 0l.305.127c.182.126 1.949 1.14 2.01 2.723.06 1.14 0 3.546 0 4.432 7.796 5.89 7.735 6.713 7.674 7.093a18 18 0 0 1-.243 1.836l-.183.823-.731-.38c-2.497-1.393-5.543-2.913-6.7-3.23 0 1.33-.061 3.99-.122 4.877 3.167 2.723 3.106 2.976 3.106 3.356-.06.253-.121 1.456-.121 1.456l-.061.824-.731-.254s-3.655-1.203-4.325-1.456c-.548.063-2.497.76-4.08 1.393zM12 20.96c.122 0 .122 0 3.898 1.267 0-.19.061-.38.061-.507-.365-.443-1.705-1.646-2.863-2.66l-.243-.19v-.316c.06-1.583.183-4.813.122-5.636 0-.316.121-.57.304-.696.305-.19.975-.634 7.431 2.913.061-.254.061-.507.122-.76-.487-.76-4.142-3.736-7.492-6.206l-.244-.19v-.317c0-.063.122-3.42.061-4.686 0-.633-.67-1.203-1.096-1.52-.427.317-1.036.824-1.097 1.457-.06 1.33.061 4.686.061 4.686v.317l-.243.19c-3.411 2.533-7.066 5.446-7.553 6.269 0 .253.06.506.122.76 6.456-3.547 7.126-3.103 7.43-2.913.244.126.366.443.305.696-.06.823.061 4.053.122 5.636v.317l-.244.19c-1.157 1.013-2.497 2.216-2.862 2.66 0 .126 0 .316.06.443C9.32 21.72 11.27 20.96 12 20.96"/>
</symbol>
<symbol id="cloud" viewBox="0 0 24 24">
<path fill="currentColor" d="M14 4a5 5 0 0 0-3.97 1.97l-.21.27-.33-.1A3.5 3.5 0 0 0 5 9.5l.01.52-.38.1A3.5 3.5 0 0 0 5.32 17h13.37a3.5 3.5 0 0 0 .68-6.9l-.38-.09L19 9a5 5 0 0 0-5-5m5 13.97V18H5.28A4.5 4.5 0 0 1 4 9.24 4.5 4.5 0 0 1 9.44 5.1 5.99 5.99 0 0 1 20 9v.26a4.5 4.5 0 0 1-1 8.71"/>
</symbol>
<symbol id="network" viewBox="0 0 24 24">
<path fill="currentColor" d="M6 3a1 1 0 1 0 0 2 1 1 0 0 0 0-2M4 4a2 2 0 1 1 3.56 1.25l2.46 3.27a3.98 3.98 0 0 1 4.67.52l2.51-2.16A2 2 0 0 1 19 4a2 2 0 1 1-1.14 3.64L15.34 9.8a3.98 3.98 0 0 1 .63 2.68l2.27.57a2 2 0 1 1-.24.97l-2.27-.57a4 4 0 0 1-6.18 1.71l-3.83 3.82a2 2 0 1 1-.7-.7l3.82-3.83a3.98 3.98 0 0 1 .38-5.32L6.76 5.85A2 2 0 0 1 4 4m15 1a1 1 0 1 0 0 2 1 1 0 0 0 0-2m-7 4a2.98 2.98 0 0 0-3 3 2.99 2.99 0 0 0 3 3 3 3 0 0 0 0-6m8 4a1 1 0 1 0 0 2 1 1 0 0 0 0-2M4 19a1 1 0 1 0 0 2 1 1 0 0 0 0-2"/>
</symbol>
<symbol id="departure" viewBox="0 0 24 24">
<path fill="currentColor" d="M.061 15.706a.6.6 0 0 0-.06.272c0 .1.026.197.077.281a.5.5 0 0 0 .212.197c1.206.63 1.911.98 2.473 1.257l.504.25v.001l.356.175c.412.201.843.412 1.523.762l.015.008.016.005c.32.098.66.112.99.041.326-.07.633-.22.892-.438l15.21-9.694a6 6 0 0 0 1.089-.84c.333-.27.556-.658.622-1.084a1.67 1.67 0 0 0-.27-1.202.53.53 0 0 0-.206-.206l-.009-.005c-.84-.407-1.439-.567-2.106-.447-.648.117-1.343.496-2.382 1.086l-.003.002-4.922 2.92q-.722-.118-1.522-.236l-.072-.01c-.583-.089-1.189-.18-1.806-.284h-.002l-1.113-.176h-.003c-1.45-.228-2.965-.467-4.461-.713a1.5 1.5 0 0 0-.638.027 1.6 1.6 0 0 0-.575.28l-.683.45a.91.91 0 0 0-.497.737v.019a.66.66 0 0 0 .337.574l5.422 3.199-2.565 1.652-1.726-.1-1.982-.11h-.003a.6.6 0 0 0-.322.083l-.006.004L.25 15.49l-.005.003a.6.6 0 0 0-.184.213m4.037-.111 1.831.107a.7.7 0 0 0 .443-.114l3.226-2.041.004-.003a.78.78 0 0 0 .257-1.007.7.7 0 0 0-.255-.268l-.002-.001-5.399-3.21.296-.174.009-.005c.126-.083.193-.12.247-.137a.35.35 0 0 1 .173-.004c.95.147 1.903.3 2.84.451l.056.01c.918.147 1.821.293 2.694.428 1.268.196 2.465.382 3.524.556l.01.001a.6.6 0 0 0 .228-.017l.077-.015a.6.6 0 0 0 .171-.056l.012-.007 5.02-2.987c.987-.537 1.522-.824 1.966-.915.405-.083.743-.005 1.325.267a.5.5 0 0 1 .05.151c.007.062 0 .14-.052.244-.11.223-.414.55-1.144 1.022L6.457 17.578l-.009.006c-.266.19-.463.268-.6.296a.53.53 0 0 1-.248 0c-.803-.42-1.235-.63-1.772-.893l-.18-.087c-.496-.243-1.055-.516-1.997-.996l.627-.423z"/>
</symbol>
<symbol id="arrival" viewBox="0 0 24 24">
<path fill="currentColor" d="M.384 7.883a.55.55 0 0 0-.23.145.52.52 0 0 0-.126.534c.416 1.286.673 2.025.877 2.613.065.187.125.359.182.528v.001l.131.372c.152.43.31.879.548 1.6l.005.017.008.014c.157.294.388.544.67.728.279.181.6.293.933.326l17.424 4.04c.44.113.893.176 1.348.188a1.7 1.7 0 0 0 1.188-.31c.34-.247.57-.612.64-1.02a.53.53 0 0 0-.004-.287l-.003-.01c-.312-.875-.623-1.407-1.177-1.796-.538-.376-1.29-.605-2.43-.93l-.004-.001-5.49-1.456c-.283-.394-.59-.808-.91-1.237l-.043-.059a115 115 0 0 1-1.08-1.47l-.665-.908-.002-.002c-.864-1.18-1.769-2.415-2.655-3.64a1.6 1.6 0 0 0-.468-.431 1.6 1.6 0 0 0-.6-.212l-.792-.173a.9.9 0 0 0-.86.16l-.007.005-.006.007a.64.64 0 0 0-.158.634l1.617 6.034-2.951-.669-1.149-1.286-1.322-1.475-.002-.003a.6.6 0 0 0-.284-.169l-.008-.002-1.862-.416-.006-.001a.56.56 0 0 0-.277.017m2.926 2.772 1.217 1.366c.1.12.239.201.392.233l3.685.867.005.001a.77.77 0 0 0 .69-.2.72.72 0 0 0 .192-.679v-.002L7.895 6.216l.33.088.01.003c.146.031.219.053.268.08a.34.34 0 0 1 .125.119c.57.772 1.136 1.55 1.693 2.315l.033.046c.545.75 1.082 1.488 1.605 2.197.76 1.03 1.475 2.003 2.102 2.87l.006.008q.073.09.173.149l.065.044a.6.6 0 0 0 .16.082l.012.003 5.606 1.481c1.066.325 1.642.505 2.018.755.343.228.527.52.75 1.119a.5.5 0 0 1-.07.14.4.4 0 0 1-.204.132c-.231.075-.671.087-1.512-.102l-17.46-4.057-.01-.002c-.32-.056-.512-.142-.628-.219a.54.54 0 0 1-.175-.175c-.277-.856-.436-1.306-.634-1.867l-.067-.187c-.182-.518-.388-1.1-.721-2.097l.734.151z"/>
</symbol>
<symbol id="groups" viewBox="0 0 24 24">
<path fill="currentColor" d="M15.5 3c-.82 0-1.5.68-1.5 1.5v2c0 .82.68 1.5 1.5 1.5h2c.82 0 1.5-.68 1.5-1.5v-2c0-.82-.68-1.5-1.5-1.5zM13 4.5A2.5 2.5 0 0 1 15.5 2h2A2.5 2.5 0 0 1 20 4.5v2A2.5 2.5 0 0 1 17.5 9h-2A2.5 2.5 0 0 1 13 6.5zM6.5 5C5.68 5 5 5.68 5 6.5v2c0 .82.68 1.5 1.5 1.5h2c.82 0 1.5-.68 1.5-1.5v-2C10 5.68 9.32 5 8.5 5zM4 6.5A2.5 2.5 0 0 1 6.5 4h2A2.5 2.5 0 0 1 11 6.5v2A2.5 2.5 0 0 1 8.5 11h-2A2.5 2.5 0 0 1 4 8.5zm8 4.5h9.5c.41 0 .8.14 1.08.42s.42.67.42 1.08V19h-8v-1h7v-5.5c0-.19-.06-.3-.13-.37S21.7 12 21.5 12H12zm-9.87 3.13c-.07.07-.13.18-.13.37V20h11v-5.5c0-.19-.06-.3-.13-.37S12.7 14 12.5 14h-10c-.19 0-.3.06-.37.13m-.7-.7A1.5 1.5 0 0 1 2.5 13h10c.41 0 .8.14 1.08.42s.42.67.42 1.08V21H1v-6.5c0-.41.14-.8.42-1.08Z"/>
</symbol>
<symbol id="groups" viewBox="0 0 24 24">
<path fill="currentColor" d="M28.5 7A2.45 2.45 0 0 0 26 9.5v6c0 1.42 1.08 2.5 2.5 2.5h6c1.42 0 2.5-1.08 2.5-2.5v-6C37 8.08 35.92 7 34.5 7zM25 9.5C25 7.52 26.52 6 28.5 6h6C36.48 6 38 7.52 38 9.5v6c0 1.98-1.52 3.5-3.5 3.5h-6a3.45 3.45 0 0 1-3.5-3.5zm-12.5.5a2.45 2.45 0 0 0-2.5 2.5v6c0 1.42 1.08 2.5 2.5 2.5h6c1.42 0 2.5-1.08 2.5-2.5v-6c0-1.42-1.08-2.5-2.5-2.5zM9 12.5C9 10.52 10.52 9 12.5 9h6c1.98 0 3.5 1.52 3.5 3.5v6c0 1.98-1.52 3.5-3.5 3.5h-6A3.45 3.45 0 0 1 9 18.5zM24 22h16.5c1.98 0 3.5 1.52 3.5 3.5V38H30.1v-1H43V25.5c0-1.42-1.08-2.5-2.5-2.5H24zM6.5 26A2.45 2.45 0 0 0 4 28.5V40h23V28.5c0-1.42-1.08-2.5-2.5-2.5zM3 28.5C3 26.52 4.52 25 6.5 25h18c1.98 0 3.5 1.52 3.5 3.5V41H3z"/>
</symbol>
<symbol id="light-theme" viewBox="0 0 24 24">
<path fill="currentColor" d="M 14.672818,12 A 2.6728182,2.6728182 0 0 1 11.999999,14.672818 2.6728182,2.6728182 0 0 1 9.3271815,12 2.6728182,2.6728182 0 0 1 11.999999,9.327182 2.6728182,2.6728182 0 0 1 14.672818,12 Z"/><path stroke="currentColor" d="M 12,4.8409489 V 7.5790861 M 6.9377864,6.9377864 8.8739418,8.8739418 M 4.8409489,12 H 7.5790861 M 6.9377864,17.062214 8.8739418,15.126058 M 12,19.159051 v -2.738137 m 5.062214,0.6413 -1.936156,-1.936156 M 19.159051,12 h -2.738137 m 0.6413,-5.0622136 -1.936156,1.9361554"/>
</symbol>
<symbol id="dark-theme" viewBox="0 0 24 24">
<path fill="currentColor" d="M 9.0082981,18.141307 C 8.4976682,17.960211 7.6548159,17.448202 7.1352931,17.003509 L 6.1907061,16.194978 7.6808629,15.693494 C 10.983391,14.582093 12.809572,11.344858 11.973972,8.0831892 11.788994,7.3611525 11.469643,6.5139847 11.264301,6.2005948 11.058961,5.8872049 10.939042,5.5827069 10.997817,5.5239332 c 0.05878,-0.058779 0.64144,-0.00551 1.294811,0.1184273 5.359107,1.0163336 7.34324,7.1434205 3.563582,11.0044895 -1.652365,1.687955 -4.530963,2.316168 -6.8479119,1.494457 z"/>
</symbol>
<symbol id="poi-contact" viewBox="0 0 24 24">
<path fill="currentColor" d="M3.8 8.6C3.8 4.33 7.32.8 11.5.8s7.7 3.53 7.7 7.8c0 1.11-.5 2.58-1.17 4.1a48 48 0 0 1-2.5 4.7 90 90 0 0 1-3.54 5.47l-.06.09-.02.02V23l-.41-.29-.4.29h-.01l-.02-.03-.06-.09a70 70 0 0 1-1.05-1.53 90 90 0 0 1-2.49-3.93 48 48 0 0 1-2.5-4.72C4.29 11.18 3.8 9.71 3.8 8.6m7.7 14.1-.4.29.4.57.4-.57zm0-.87a88 88 0 0 0 3.17-4.94 47 47 0 0 0 2.45-4.6A10.3 10.3 0 0 0 18.2 8.6c0-3.73-3.08-6.8-6.7-6.8a6.82 6.82 0 0 0-6.7 6.8c0 .89.4 2.18 1.08 3.69.67 1.48 1.55 3.1 2.45 4.6a89 89 0 0 0 3.17 4.94M10.5 4a.5.5 0 0 0-.5.5v2c0 .19.06.3.13.37s.18.13.37.13h2c.19 0 .3-.06.37-.13S13 6.7 13 6.5v-2a.5.5 0 0 0-.5-.5zM9 4.5c0-.74.6-1.5 1.5-1.5h2c.9 0 1.5.76 1.5 1.5v2c0 .41-.14.8-.42 1.08A1.5 1.5 0 0 1 12.5 8h-2c-.41 0-.8-.14-1.08-.42A1.5 1.5 0 0 1 9 6.5zm-.66 4.73A1 1 0 0 1 9 9h5c.26 0 .47.1.63.24.15.14.23.31.28.44a1.6 1.6 0 0 1 .09.5v.02h-.5.5V14H8v-3.77a1.5 1.5 0 0 1 .04-.52 1 1 0 0 1 .3-.48m.66.9V13h5v-2.8a.7.7 0 0 0-.04-.2H9a.4.4 0 0 0 0 .13"/>
</symbol>
</svg>